<?xml version="1.0" encoding="utf-8"?><svg viewBox="0 0 42 42" xmlns="http://www.w3.org/2000/svg" xmlns:xlink="http://www.w3.org/1999/xlink"><style>:root>svg{display:none}:root>svg:target{display:block}</style><svg fill="none" viewBox="0 0 14 14" id="arrow-left" xmlns="http://www.w3.org/2000/svg"><path d="m9.275 12.25 1.225-1.225L6.475 7 10.5 2.975 9.275 1.75 4.025 7l5.25 5.25Z" fill="currentColor"/></svg><svg viewBox="0 0 14 14" id="arrow-right" xmlns="http://www.w3.org/2000/svg"><path d="M4.725 12.25 3.5 11.025 7.525 7 3.5 2.975 4.725 1.75 9.975 7l-5.25 5.25Z" fill="currentColor"/></svg><svg fill="none" viewBox="0 0 12 12" id="chevron-bottom" xmlns="http://www.w3.org/2000/svg"><path d="M1.41 2.59 6 7.17l4.59-4.58L12 4l-6 6-6-6 1.41-1.41Z" fill="#0F1B24"/></svg><svg fill="none" viewBox="0 0 20 20" id="chevron-bottom-footer" xmlns="http://www.w3.org/2000/svg"><path d="M2.5 6.75 4.25 5 10 10.75 15.75 5l1.75 1.75-7.5 7.5-7.5-7.5Z" fill="#2D92D0"/></svg><svg fill="none" viewBox="0 0 42 42" id="close" xmlns="http://www.w3.org/2000/svg"><path d="M8.525 11.475 30.8 33.749l2.475-2.475L11 9l-2.475 2.475Z" fill="currentColor"/><path d="M11.475 33.475 9 31 31.274 8.726l2.475 2.475-22.274 22.274Z" fill="currentColor"/></svg><svg fill="none" viewBox="0 0 42 42" id="hamburger" xmlns="http://www.w3.org/2000/svg"><path d="M5.25 31.5h31.5V28H5.25v3.5Zm0-8.75h31.5v-3.5H5.25v3.5Zm0-12.25V14h31.5v-3.5H5.25Z" fill="currentColor"/></svg><svg fill="none" viewBox="0 0 20 20" id="mail" xmlns="http://www.w3.org/2000/svg"><path d="M3.333 16.667c-.458 0-.85-.164-1.177-.49A1.602 1.602 0 0 1 1.666 15V5c0-.458.164-.85.49-1.178.327-.326.72-.49 1.177-.489h13.334c.458 0 .85.164 1.177.49.327.327.49.72.49 1.177v10c0 .458-.164.85-.49 1.177-.327.327-.72.49-1.177.49H3.333ZM10 10.687a.885.885 0 0 0 .438-.125l5.895-3.687a.688.688 0 0 0 .334-.604.68.68 0 0 0-.355-.625c-.236-.14-.479-.132-.729.02L10 9.167l-5.583-3.5c-.25-.152-.493-.156-.73-.01-.236.147-.354.351-.354.615 0 .139.028.26.084.365a.552.552 0 0 0 .25.239l5.895 3.687a.875.875 0 0 0 .438.125Z" fill="#38B44A"/></svg><svg fill="none" viewBox="0 0 24 24" id="map" xmlns="http://www.w3.org/2000/svg"><path d="M12 19c-2.35-1.733-4.104-3.417-5.262-5.05C5.58 12.317 5.001 10.717 5 9.15c0-1.183.213-2.221.638-3.113.425-.892.97-1.638 1.636-2.237a6.755 6.755 0 0 1 2.25-1.35C10.357 2.15 11.183 2 12 2s1.642.15 2.475.45c.833.3 1.583.75 2.25 1.35.667.6 1.213 1.346 1.638 2.238.425.892.638 1.93.637 3.112 0 1.567-.58 3.167-1.738 4.8C16.103 15.583 14.349 17.267 12 19Zm0-8c.55 0 1.021-.196 1.413-.588.392-.392.588-.863.587-1.412 0-.55-.196-1.021-.588-1.413A1.922 1.922 0 0 0 12 7c-.55 0-1.021.196-1.413.588A1.922 1.922 0 0 0 10 9c0 .55.196 1.021.588 1.413.392.392.863.588 1.412.587ZM5 22v-2h14v2H5Z" fill="#38B44A"/></svg><svg fill="none" viewBox="0 0 20 20" id="phone" xmlns="http://www.w3.org/2000/svg"><path d="m17.5 12.883-4.392-.508-2.1 2.1a12.537 12.537 0 0 1-5.491-5.492l2.108-2.108L7.117 2.5H2.525C2.042 10.983 9.017 17.958 17.5 17.475v-4.592Z" fill="#38B44A"/></svg><svg fill="none" viewBox="0 0 20 20" id="youtube" xmlns="http://www.w3.org/2000/svg"><path d="M18.381 5.787a2.187 2.187 0 0 0-1.544-1.543C15.475 3.875 10 3.875 10 3.875s-5.475 0-6.837.369a2.188 2.188 0 0 0-1.544 1.543c-.255 1.39-.378 2.8-.369 4.213-.01 1.413.114 2.823.369 4.213a2.187 2.187 0 0 0 1.544 1.543c1.362.369 6.837.369 6.837.369s5.475 0 6.837-.369a2.186 2.186 0 0 0 1.544-1.543c.255-1.39.378-2.8.369-4.213a22.583 22.583 0 0 0-.369-4.213ZM8.25 12.625v-5.25L12.794 10 8.25 12.625Z" fill="#FF0F17"/></svg></svg>