<?xml version="1.0" encoding="utf-8"?><svg viewBox="0 0 42 42" xmlns="http://www.w3.org/2000/svg" xmlns:xlink="http://www.w3.org/1999/xlink"><style>:root>svg{display:none}:root>svg:target{display:block}</style><svg fill="none" viewBox="0 0 12 8" id="arrow-down" xmlns="http://www.w3.org/2000/svg"><path d="M1.41 0 6 4.58 10.59 0 12 1.41l-6 6-6-6L1.41 0Z" fill="#0F1B24"/></svg><svg fill="none" viewBox="0 0 14 14" id="arrow-left" xmlns="http://www.w3.org/2000/svg"><path d="m9.275 12.25 1.225-1.225L6.475 7 10.5 2.975 9.275 1.75 4.025 7l5.25 5.25Z" fill="currentColor"/></svg><svg viewBox="0 0 14 14" id="arrow-right" xmlns="http://www.w3.org/2000/svg"><path d="M4.725 12.25 3.5 11.025 7.525 7 3.5 2.975 4.725 1.75 9.975 7l-5.25 5.25Z" fill="currentColor"/></svg><svg fill="none" viewBox="0 0 20 20" id="calendar" xmlns="http://www.w3.org/2000/svg"><path d="M10 11.668a.807.807 0 0 1-.594-.24.803.803 0 0 1-.24-.593c0-.237.08-.435.24-.595.16-.16.358-.24.594-.239.236 0 .434.08.594.24.16.16.24.358.24.594s-.08.434-.24.594a.803.803 0 0 1-.594.239Zm-3.333 0a.807.807 0 0 1-.595-.24.803.803 0 0 1-.239-.593c0-.237.08-.435.24-.595.16-.16.358-.24.594-.239.236 0 .434.08.594.24.16.16.24.358.239.594 0 .236-.08.434-.24.594a.803.803 0 0 1-.593.239Zm6.666 0a.807.807 0 0 1-.594-.24.803.803 0 0 1-.239-.593c0-.237.08-.435.24-.595.16-.16.358-.24.593-.239.236 0 .434.08.595.24.16.16.24.358.239.594 0 .236-.08.434-.24.594a.803.803 0 0 1-.594.239ZM10 15.001a.807.807 0 0 1-.594-.24.803.803 0 0 1-.24-.593c0-.236.08-.434.24-.594.16-.16.358-.24.594-.24s.434.08.594.24c.16.16.24.358.24.594s-.08.434-.24.594a.803.803 0 0 1-.594.24Zm-3.333 0a.807.807 0 0 1-.595-.24.803.803 0 0 1-.239-.593c0-.236.08-.434.24-.594.16-.16.358-.24.594-.24s.434.08.594.24c.16.16.24.358.239.594 0 .236-.08.434-.24.594a.803.803 0 0 1-.593.24Zm6.666 0a.807.807 0 0 1-.594-.24.803.803 0 0 1-.239-.593c0-.236.08-.434.24-.594.16-.16.358-.24.593-.24.236 0 .434.08.595.24.16.16.24.358.239.594 0 .236-.08.434-.24.594a.803.803 0 0 1-.594.24Zm-9.166 3.334c-.459 0-.851-.164-1.178-.49a1.601 1.601 0 0 1-.489-1.177V5.001c0-.458.163-.85.49-1.177.327-.327.719-.49 1.177-.49H5v-.833c0-.236.08-.434.24-.594.16-.16.358-.24.593-.239.236 0 .434.08.595.24.16.16.24.358.239.593v.834h6.666V2.5c0-.236.08-.434.24-.594.16-.16.358-.24.594-.239.236 0 .434.08.594.24.16.16.24.358.239.593v.834h.833c.459 0 .851.163 1.178.49.326.326.49.719.489 1.176v11.667c0 .458-.163.85-.49 1.178-.327.326-.719.49-1.177.489H4.167Zm0-1.667h11.666V8.335H4.167v8.333Z" fill="#495157"/></svg><svg fill="none" viewBox="0 0 18 18" id="check" xmlns="http://www.w3.org/2000/svg"><path d="m15 4.5-8.25 8.25L3 9" stroke="#fff" stroke-width="1.5" stroke-linecap="round" stroke-linejoin="round"/></svg><svg fill="none" viewBox="0 0 24 24" id="check-box" xmlns="http://www.w3.org/2000/svg"><path d="m10.6 16.2 7.05-7.05-1.4-1.4-5.65 5.65-2.85-2.85-1.4 1.4 4.25 4.25ZM5 21c-.55 0-1.021-.196-1.413-.588A1.922 1.922 0 0 1 3 19V5c0-.55.196-1.021.588-1.413A1.922 1.922 0 0 1 5 3h14c.55 0 1.021.196 1.413.588.392.392.588.863.587 1.412v14c0 .55-.196 1.021-.588 1.413A1.922 1.922 0 0 1 19 21H5Z" fill="#38B44A"/></svg><svg fill="none" viewBox="0 0 24 22" id="check-circle" xmlns="http://www.w3.org/2000/svg"><path d="m10.6 15.6 7.05-7.05-1.4-1.4-5.65 5.65-2.85-2.85-1.4 1.4 4.25 4.25ZM12 21a9.733 9.733 0 0 1-3.9-.788 10.114 10.114 0 0 1-3.175-2.137c-.9-.9-1.612-1.958-2.137-3.175A9.755 9.755 0 0 1 2 11c0-1.383.263-2.683.788-3.9a10.114 10.114 0 0 1 2.137-3.175c.9-.9 1.958-1.612 3.175-2.137A9.755 9.755 0 0 1 12 1c1.383 0 2.683.263 3.9.788a10.114 10.114 0 0 1 3.175 2.137c.9.9 1.613 1.958 2.138 3.175A9.72 9.72 0 0 1 22 11a9.733 9.733 0 0 1-.788 3.9 10.114 10.114 0 0 1-2.137 3.175c-.9.9-1.958 1.613-3.175 2.138A9.72 9.72 0 0 1 12 21Z" fill="#38B44A"/></svg><svg fill="none" viewBox="0 0 32 32" id="check-circle-outline" xmlns="http://www.w3.org/2000/svg"><path d="M16 2.667C8.64 2.667 2.667 8.64 2.667 16S8.64 29.334 16 29.334 29.333 23.36 29.333 16C29.333 8.64 23.36 2.667 16 2.667Zm0 24C10.12 26.667 5.333 21.88 5.333 16S10.12 5.334 16 5.334 26.667 10.12 26.667 16c0 5.88-4.787 10.667-10.667 10.667Zm5.173-15.613-7.84 7.84-2.506-2.507a1.33 1.33 0 0 0-1.88 1.88L12.4 21.72c.52.52 1.36.52 1.88 0l8.787-8.786a1.328 1.328 0 0 0 0-1.88 1.344 1.344 0 0 0-1.894 0Z" fill="#38B44A"/></svg><svg fill="none" viewBox="0 0 12 12" id="chevron-bottom" xmlns="http://www.w3.org/2000/svg"><path d="M1.41 2.59 6 7.17l4.59-4.58L12 4l-6 6-6-6 1.41-1.41Z" fill="#0F1B24"/></svg><svg fill="none" viewBox="0 0 20 20" id="chevron-bottom-footer" xmlns="http://www.w3.org/2000/svg"><path d="M2.5 6.75 4.25 5 10 10.75 15.75 5l1.75 1.75-7.5 7.5-7.5-7.5Z" fill="#2D92D0"/></svg><svg fill="none" viewBox="0 0 42 42" id="close" xmlns="http://www.w3.org/2000/svg"><path d="M8.525 11.475 30.8 33.749l2.475-2.475L11 9l-2.475 2.475Z" fill="currentColor"/><path d="M11.475 33.475 9 31 31.274 8.726l2.475 2.475-22.274 22.274Z" fill="currentColor"/></svg><svg fill="none" viewBox="0 0 42 42" id="hamburger" xmlns="http://www.w3.org/2000/svg"><path d="M5.25 31.5h31.5V28H5.25v3.5Zm0-8.75h31.5v-3.5H5.25v3.5Zm0-12.25V14h31.5v-3.5H5.25Z" fill="currentColor"/></svg><svg fill="none" viewBox="0 0 20 20" id="info" xmlns="http://www.w3.org/2000/svg"><path d="M10 1.875A8.125 8.125 0 1 0 18.125 10 8.133 8.133 0 0 0 10 1.875Zm0 15A6.875 6.875 0 1 1 16.875 10 6.883 6.883 0 0 1 10 16.875Zm1.25-3.125a.624.624 0 0 1-.625.625 1.25 1.25 0 0 1-1.25-1.25V10a.625.625 0 0 1 0-1.25 1.25 1.25 0 0 1 1.25 1.25v3.125a.624.624 0 0 1 .625.625Zm-2.5-7.188a.938.938 0 1 1 1.875 0 .938.938 0 0 1-1.875 0Z" fill="#2D92D0"/></svg><svg fill="none" viewBox="0 0 28 28" id="lk" xmlns="http://www.w3.org/2000/svg"><path d="M23.883 2.332H4.119a1.692 1.692 0 0 0-1.715 1.669v19.996a1.692 1.692 0 0 0 1.715 1.669h19.764a1.69 1.69 0 0 0 1.715-1.669V4.001a1.691 1.691 0 0 0-1.715-1.669ZM9.439 21.862h-3.5v-10.5h3.5v10.5ZM7.69 9.892a1.82 1.82 0 0 1 0-3.64 1.832 1.832 0 1 1 0 3.64Zm14.374 11.97h-3.5v-5.635c0-1.412-.502-2.333-1.774-2.333a1.924 1.924 0 0 0-1.796 1.271c-.092.275-.131.564-.117.852v5.834h-3.5v-10.5h3.5v1.481a3.5 3.5 0 0 1 3.162-1.75c2.333 0 4.025 1.505 4.025 4.737v6.043Z" fill="#0966C2"/></svg><svg fill="none" viewBox="0 0 20 20" id="mail" xmlns="http://www.w3.org/2000/svg"><path d="M3.333 16.667c-.458 0-.85-.164-1.177-.49A1.602 1.602 0 0 1 1.666 15V5c0-.458.164-.85.49-1.178.327-.326.72-.49 1.177-.489h13.334c.458 0 .85.164 1.177.49.327.327.49.72.49 1.177v10c0 .458-.164.85-.49 1.177-.327.327-.72.49-1.177.49H3.333ZM10 10.687a.885.885 0 0 0 .438-.125l5.895-3.687a.688.688 0 0 0 .334-.604.68.68 0 0 0-.355-.625c-.236-.14-.479-.132-.729.02L10 9.167l-5.583-3.5c-.25-.152-.493-.156-.73-.01-.236.147-.354.351-.354.615 0 .139.028.26.084.365a.552.552 0 0 0 .25.239l5.895 3.687a.875.875 0 0 0 .438.125Z" fill="#38B44A"/></svg><svg fill="none" viewBox="0 0 24 24" id="map" xmlns="http://www.w3.org/2000/svg"><path d="M12 19c-2.35-1.733-4.104-3.417-5.262-5.05C5.58 12.317 5.001 10.717 5 9.15c0-1.183.213-2.221.638-3.113.425-.892.97-1.638 1.636-2.237a6.755 6.755 0 0 1 2.25-1.35C10.357 2.15 11.183 2 12 2s1.642.15 2.475.45c.833.3 1.583.75 2.25 1.35.667.6 1.213 1.346 1.638 2.238.425.892.638 1.93.637 3.112 0 1.567-.58 3.167-1.738 4.8C16.103 15.583 14.349 17.267 12 19Zm0-8c.55 0 1.021-.196 1.413-.588.392-.392.588-.863.587-1.412 0-.55-.196-1.021-.588-1.413A1.922 1.922 0 0 0 12 7c-.55 0-1.021.196-1.413.588A1.922 1.922 0 0 0 10 9c0 .55.196 1.021.588 1.413.392.392.863.588 1.412.587ZM5 22v-2h14v2H5Z" fill="#38B44A"/></svg><svg fill="none" viewBox="0 0 22 22" id="no-check" xmlns="http://www.w3.org/2000/svg"><path fill="#0F1B24" d="M5 10h11v2H5z"/></svg><svg fill="none" viewBox="0 0 20 20" id="phone" xmlns="http://www.w3.org/2000/svg"><path d="m17.5 12.883-4.392-.508-2.1 2.1a12.537 12.537 0 0 1-5.491-5.492l2.108-2.108L7.117 2.5H2.525C2.042 10.983 9.017 17.958 17.5 17.475v-4.592Z" fill="#38B44A"/></svg><svg fill="none" viewBox="0 0 24 24" id="plus" xmlns="http://www.w3.org/2000/svg"><path d="M19 12.996h-6v6h-2v-6H5v-2h6v-6h2v6h6v2Z" fill="currentColor"/></svg><svg fill="none" viewBox="0 0 12 18" id="price-plans-arrow" xmlns="http://www.w3.org/2000/svg"><path d="M.885 15.885 7.755 9 .885 2.115 3 0l9 9-9 9-2.115-2.115Z" fill="currentColor"/></svg><svg fill="none" viewBox="0 0 32 32" id="round-check-circle-outline" xmlns="http://www.w3.org/2000/svg"><path d="M16 2.667C8.64 2.667 2.667 8.64 2.667 16S8.64 29.334 16 29.334 29.333 23.36 29.333 16C29.333 8.64 23.36 2.667 16 2.667Zm0 24C10.12 26.667 5.333 21.88 5.333 16S10.12 5.334 16 5.334 26.667 10.12 26.667 16c0 5.88-4.787 10.667-10.667 10.667Z" fill="#E92D4F"/><rect x="10" y="20.829" width="15.339" height="2.5" rx="1.25" transform="rotate(-44.846 10 20.83)" fill="#E92D4F"/><rect x="20.858" y="22.614" width="15.339" height="2.5" rx="1.25" transform="rotate(-135 20.858 22.614)" fill="#E92D4F"/></svg><svg fill="none" viewBox="0 0 20 20" id="youtube" xmlns="http://www.w3.org/2000/svg"><path d="M18.381 5.787a2.187 2.187 0 0 0-1.544-1.543C15.475 3.875 10 3.875 10 3.875s-5.475 0-6.837.369a2.188 2.188 0 0 0-1.544 1.543c-.255 1.39-.378 2.8-.369 4.213-.01 1.413.114 2.823.369 4.213a2.187 2.187 0 0 0 1.544 1.543c1.362.369 6.837.369 6.837.369s5.475 0 6.837-.369a2.186 2.186 0 0 0 1.544-1.543c.255-1.39.378-2.8.369-4.213a22.583 22.583 0 0 0-.369-4.213ZM8.25 12.625v-5.25L12.794 10 8.25 12.625Z" fill="#FF0F17"/></svg>

<symbol fill="none" viewBox="0 0 24 22" id="check-circle-color" xmlns="http://www.w3.org/2000/svg"><path d="m10.6 15.6 7.05-7.05-1.4-1.4-5.65 5.65-2.85-2.85-1.4 1.4 4.25 4.25ZM12 21a9.733 9.733 0 0 1-3.9-.788 10.114 10.114 0 0 1-3.175-2.137c-.9-.9-1.612-1.958-2.137-3.175A9.755 9.755 0 0 1 2 11c0-1.383.263-2.683.788-3.9a10.114 10.114 0 0 1 2.137-3.175c.9-.9 1.958-1.612 3.175-2.137A9.755 9.755 0 0 1 12 1c1.383 0 2.683.263 3.9.788a10.114 10.114 0 0 1 3.175 2.137c.9.9 1.613 1.958 2.138 3.175A9.72 9.72 0 0 1 22 11a9.733 9.733 0 0 1-.788 3.9 10.114 10.114 0 0 1-2.137 3.175c-.9.9-1.958 1.613-3.175 2.138A9.72 9.72 0 0 1 12 21Z" fill="currentColor"/></symbol>

<symbol fill="none" viewBox="0 0 22 22" id="no-check-color" xmlns="http://www.w3.org/2000/svg"><path fill="currentColor" d="M5 10h11v2H5z"/></symbol>

</svg>
